<svg width="1000" height="1000" viewBox="0 0 1000 1000" fill="none" xmlns="http://www.w3.org/2000/svg">
<circle cx="500" cy="500" r="499.5" fill="white" stroke="black"/>
<path d="M705.5 290.109L616.766 284.5L602 362.672H719.844L705.5 378.25L588 385.75L593.734 187L719.844 180L718.438 202.219L616.766 192.5L619.234 274.5L705.5 268.031V290.109Z" fill="black"/>
<path d="M307 594L291.862 775L244 723L260 266.5L377.865 240C417.585 240 448.662 254.943 471.097 284.828C493.699 314.714 505 354.275 505 403.513C505 455.445 493.948 495.497 471.845 523.668C449.908 551.593 418.914 602.5 377.865 602.5L307 594ZM291.862 537.5L377.865 547.5C403.458 547.5 423.069 499.049 436.696 481.411C450.324 463.529 457.138 437.808 457.138 404.248C457.138 372.403 450.324 346.927 436.696 327.819C423.069 308.712 404.372 298.791 380.607 298.056L307 327.819L291.862 537.5Z" fill="black"/>
<path d="M586.875 607L667.734 765.75L720.75 607H755.766V811.75L733.734 801.25L728.766 732.016L725.734 627.25L664.078 811.75H643.406L568.234 632.75L571.766 732.016L575.766 819.25L552 801.25V607H586.875Z" fill="black"/>
</svg>
